<?xml version="1.0" encoding="utf-8"?>
<svg version="1.1" id="Layer_1" x="0px" y="0px" viewBox="0 0 1400 980" style="enable-background:new 0 0 1400 980;" xmlns="http://www.w3.org/2000/svg">
  <style type="text/css">
	.st0{fill:#99AAA9;}
	.st1{fill:#A7B7B6;}
	.st2{fill:#E6C197;}
	.st3{fill:#D0A67C;}
	.st4{fill:#EC463A;}
	.st5{fill:#D0D6D5;}
	.st6{fill:#F86F57;}
	.st7{fill:#254F68;}
	.st8{fill:#375F7C;}
	.st9{fill:#F2D8B7;}
	.st10{fill:#ECBC97;}
	.st11{fill:#443B2D;}
	.st12{fill:#F4DEB8;}
	.st13{fill:#2D261D;}
	.st14{fill:#F67E4D;}
	.st15{fill:#F15A37;}
	.st16{fill:#FFFFFF;}
	.st17{fill:#E7C794;}
	.st18{fill:#F1B94E;}
	.st19{fill:#DDA243;}
	.st20{fill:#A77E5D;}
	.st21{fill:#8E6346;}
	.st22{enable-background:new    ;}
	.st23{fill:#F2EDE4;}
</style>
  <g id="XMLID_122_">
    <g id="XMLID_120_">
      <path id="XMLID_171_" class="st0" d="M1305.8,0v540.6c-286.8,452-367.8-0.2-367.8-0.2c-297.6,10.8-102.9-354.2-102.9-354.2 C709.3,203.6,699.2,73.4,703.3,0H0v980h1400V0H1305.8z M821.4,832.5c0,0-364.4-7.2-367.8-7.2c-3.4,0-105.4-29-106-33 s2.4-214.6,2.4-214.6s135.7-148.3,208.3-135.5C631,455,659.5,607,659.5,607s120.9-33.2,147.5,51.4S821.4,832.5,821.4,832.5z"/>
      <path id="XMLID_172_" class="st1" d="M659.5,607c0,0-28.5-152-101.1-164.8C485.7,429.4,350,577.7,350,577.7s-3,210.6-2.4,214.6 s102.6,33,106,33c3.4,0,367.8,7.2,367.8,7.2S833.7,743,807,658.4S659.5,607,659.5,607z"/>
    </g>
    <path id="XMLID_123_" class="st1" d="M987.8,0H703.3c-4.1,73.4,6,203.6,131.8,186.2c0,0-194.6,365,102.9,354.2 c0,0,81,452.3,367.8,0.2V400.3V0H987.8z"/>
  </g>
  <g id="XMLID_109_">
    <polygon id="XMLID_137_" class="st2" points="1400.4,766.1 0.4,725.1 0.4,980.1 1400.4,980.1 &#9;"/>
    <polygon id="XMLID_113_" class="st3" points="33.4,923.6 277.4,927 292.6,946.1 175.9,951.5 228.2,956.8 206.3,980 0,980 &#9;"/>
    <polygon id="XMLID_4_" class="st3" points="1248.8,774.2 1170,776.3 1179,787.3 1008.3,787.3 993,804 1151,809.5 1071,815 &#10;&#9;&#9;1063.5,832 1191.5,832.5 1182.5,850.2 1346.5,853.1 1309.5,828.3 1231.5,828.3 1222.5,815 1313,809 &#9;"/>
    <path id="XMLID_3_" class="st3" d="M660.2,815c0,0-150.2,3.1-187.7,30C435,872,573.6,919.5,683,919.5s210-35,210-52.3 S801.8,815,660.2,815z"/>
    <polygon id="XMLID_116_" class="st2" points="401.8,849.3 542.5,848.4 560.3,834.1 450.3,825.3 &#9;"/>
    <polygon id="XMLID_117_" class="st3" points="483.3,828.7 403.8,823.3 443.5,804.3 624.7,808.3 621.9,795.7 546.1,792.3 529.4,777 &#10;&#9;&#9;583.1,775 570.8,764.3 643.4,760.7 738.9,766.3 726.1,778.3 742.2,779.3 732.7,794.7 652.7,791.7 658,801 703.1,805.7 723.6,821.3 &#10;&#9;&#9;531.3,832 &#9;"/>
  </g>
  <g id="XMLID_118_">
    <g id="XMLID_140_">
      <path id="XMLID_142_" class="st4" d="M301.5,546c-73-16.5,3.5-110,3.5-110s-150-37-145-189.4C163.4,141.6,211.1,48,240.4,0H0v980 c8.6-9.4,371.6-244.7,371.6-244.7l2.9-65.6C279.9,725.7,301.5,546,301.5,546z"/>
      <g id="XMLID_141_">
        <path id="XMLID_147_" class="st5" d="M324.8,368.9l51.6-68.9l14,6.9L403.8,0H240.4c-29.3,48-76.9,141.6-80.4,246.6 C155,399,305,436,305,436s-76.5,93.5-3.5,110c0,0-21.6,179.7,73,123.7l8.6-196C324.7,455,324.8,368.9,324.8,368.9z"/>
        <path id="XMLID_148_" class="st1" d="M376.3,300.1l-51.6,68.9c0,0-0.1,86.1,58.3,104.8l7.3-166.8L376.3,300.1z"/>
      </g>
    </g>
    <polygon id="XMLID_139_" class="st6" points="197.3,766 296.7,721.3 247,735.3 245,703.2 238.8,737.7 &#9;"/>
    <path id="XMLID_138_" class="st6" d="M73.7,540.4l162-16.4L178,536.3l-5,37.7l-2.7-36.3l-38.8,4.3c0,0-2.7,41-2.7,40.5 s-5.8-39.3-5.8-39.3L73.7,540.4z"/>
    <polygon id="XMLID_144_" class="st6" points="110.3,40.4 183.5,57.5 144.9,54.4 134.7,79 138,53.3 &#9;"/>
    <polygon id="XMLID_145_" class="st1" points="255.8,61.6 252.3,67.5 257.6,74 259.3,66 &#9;"/>
    <polygon id="XMLID_149_" class="st1" points="328,520.8 326,527.4 334.1,533.3 &#9;"/>
    <polygon id="XMLID_146_" class="st1" points="345.3,586.8 348.8,582.9 350,584.8 345.9,593 &#9;"/>
    <polygon id="XMLID_151_" class="st1" points="331.1,630.3 325.3,634.4 329.3,638.5 &#9;"/>
    <polygon id="XMLID_150_" class="st1" points="343.8,642.9 345.5,647 351.8,644.9 349,635.1 &#9;"/>
    <polygon id="XMLID_153_" class="st1" points="194.6,275.7 190.6,279.4 197,289.5 &#9;"/>
    <polygon id="XMLID_154_" class="st1" points="220.3,273.1 211,281.5 215.7,290.1 &#9;"/>
    <polygon id="XMLID_159_" class="st1" points="356.4,34.8 347.1,43.2 351.8,51.8 &#9;"/>
    <polygon id="XMLID_155_" class="st1" points="363.3,139.9 372.8,130.7 366.1,127.5 &#9;"/>
    <polygon id="XMLID_156_" class="st1" points="233.7,327.1 230.3,340.3 237.3,342.1 &#9;"/>
    <polygon id="XMLID_158_" class="st1" points="200,192.9 197.8,179.5 190.6,180.6 &#9;"/>
    <polygon id="XMLID_157_" class="st1" points="327.3,201.5 320.9,213.8 328.6,215.5 &#9;"/>
  </g>
  <g id="XMLID_119_">
    <polygon id="XMLID_143_" class="st5" points="1400,980 1231.7,762.2 1211.6,0 1400,0 &#9;"/>
    <polygon id="XMLID_160_" class="st1" points="1251.7,118 1245.7,131 1251.7,132.7 &#9;"/>
    <polygon id="XMLID_161_" class="st1" points="1334.3,773.3 1328,787 1336.3,792.3 &#9;"/>
    <polygon id="XMLID_162_" class="st1" points="1264.7,720 1260,729.3 1266,738.7 &#9;"/>
    <polygon id="XMLID_163_" class="st1" points="1359.3,705.7 1352.3,711.7 1362.7,716.3 &#9;"/>
    <polygon id="XMLID_164_" class="st1" points="1372.3,48.7 1363.7,65.3 1372.3,65.3 &#9;"/>
    <polygon id="XMLID_165_" class="st1" points="1240.3,45 1235,48.7 1244.3,55.7 &#9;"/>
    <polygon id="XMLID_166_" class="st1" points="1264.7,65.3 1260.7,72 1268.3,74.7 &#9;"/>
    <path id="XMLID_167_" class="st1" d="M1324.3,464.7l-5.3,6.7c0,0,8,10,8.3,8C1327.7,477.3,1324.3,464.7,1324.3,464.7z"/>
    <polygon id="XMLID_168_" class="st1" points="1261,391 1258,398.3 1263.7,398.3 &#9;"/>
    <polygon id="XMLID_2_" class="st1" points="1366,306.3 1357,329.3 1364,329.3 &#9;"/>
  </g>
  <g id="XMLID_87_">
    <g id="XMLID_66_">
      <g id="XMLID_64_">
        <path id="XMLID_53_" class="st5" d="M823.8,336.4c0,0-2.4-53.6,31.6-62.7c0,0,1.9-25.4,14.4-31.7c12.5-6.2,31.4-2.2,31.4-2.2 s14.9-11.5,36-3.8c21.1,7.7,33.1,61.3,33.1,61.3L823.8,336.4z"/>
        <polygon id="XMLID_38_" class="st7" points="814.3,349 815.5,341.4 906.3,253 977.5,295 979.8,302.7 909.6,276.2 &#9;&#9;&#9;"/>
        <g id="XMLID_54_">
          <path id="XMLID_56_" class="st8" d="M897,337.6l4.7,15.5c0,0-2,6-4.3,13.4l82.4-63.9l-72.9-41L814.3,349l30.7,20.7l41.5-37.3 L897,337.6z"/>
          <path id="XMLID_57_" class="st7" d="M897.4,366.6c2.4-7.4,4.3-13.4,4.3-13.4l-4.7-15.5l-10.5-5.3L845,369.7l25.9,17.4 L897.4,366.6z"/>
        </g>
        <g id="XMLID_55_">
          <path id="XMLID_60_" class="st9" d="M899.7,339.2c8,1,19.2-2.1,19.2-2.1l9.2,26.2l9.9,0.5c4.5-6.2-0.6-9.8-0.6-9.8 c4-7-1.6-11.5-1.6-11.5c2.1-7.4-7-9.1-7-9.1c-2.1-17.1-36.8-11.5-42.9,0c-6.1,11.5-1.8,31.7-1.8,31.7l7.4,18.7l22.1-1.8 c0,0,4.4-0.1,9.3-2l-11-17.5C911.9,350.5,899.7,339.2,899.7,339.2z"/>
          <path id="XMLID_61_" class="st10" d="M938,363.8l-9.9-0.5l-9.2-26.2c0,0-11.2,3.1-19.2,2.1c0,0,12.2,11.3,12.2,23.3l11,17.5 c1.6-0.6,3.2-1.4,4.8-2.5C934,373.2,938,363.8,938,363.8z"/>
        </g>
        <path id="XMLID_43_" class="st8" d="M913.5,382l-13.9-42.8c0,0,8.8-0.2,18.7-2.1l10.4,39.6L913.5,382z"/>
        <path id="XMLID_52_" class="st9" d="M918.9,337.1c0,0-5.6,1.9-3.8,6.4c1.8,4.5,6.5,4.9,6.5,4.9s-5.4,3-4.1,6.7 c1.4,3.8,5.3,3.9,5.3,3.9s-5.5,7.8,4.4,9.1c0,0,5.9,0.6,10.9-4.4L927.1,336L918.9,337.1z"/>
      </g>
      <path id="XMLID_42_" class="st7" d="M913.5,382c0,0,4-10.6,15.3-5.4C928.8,376.6,925.6,388,913.5,382z"/>
    </g>
    <g id="XMLID_67_">
      <g id="XMLID_14_">
        <path id="XMLID_20_" class="st11" d="M700.7,323.4c2.4-1.9,1.7-3.4,0-4.5C700.7,320.4,700.7,321.9,700.7,323.4z"/>
        <g id="XMLID_17_">
          <g id="XMLID_25_">
            <path id="XMLID_34_" class="st9" d="M701,328.9c-0.2-1.9-0.3-3.7-0.3-5.5c-0.5,0.4-1.2,0.8-2.1,1.3 c-10.6,5.6-16.2-0.4-16.2-0.4s8.3,1.2,10.8-7.9c0,0,4.9,0.8,7.5,2.5c0.4-17.2,5.4-30.5,5.4-30.5s-3.9-2.7-10.4-5.9l3.2,24.6 c-17.9,0.2-30.1-9.1-30.1-9.1c-25.7,10.4-45.4,8.3-54.3,6.4c-0.7,0.7-1.3,1.4-1.8,2c-5,5.2-1.4,9.8,7.9,11.4 c0,0-3.1,15.4-3.8,26.5s25.6,14.2,35.4,13.7c0,0,6.8,0.1,15.9-2.3c0,0-7,12.7-17.5,20.5c0,0,11.2,17.9,29.1,17.7 c17.9-0.2,29.3-28.9,29.3-28.9S703,350.7,701,328.9z"/>
            <path id="XMLID_35_" class="st10" d="M668.2,355.8c-9.1,2.4-15.9,2.3-15.9,2.3s0,7.4-1.6,18.2 C661.2,368.5,668.2,355.8,668.2,355.8z"/>
          </g>
          <path id="XMLID_29_" class="st10" d="M668.9,298c0,0,12.2,9.3,30.1,9.1l-3.2-24.6c-7.3-3.5-17.8-7.4-30.3-8.8 c-23.8-2.6-38.2,15.3-38.2,15.3s-7.4,9.6-12.6,15.3C623.5,306.4,643.2,308.5,668.9,298z"/>
        </g>
        <path id="XMLID_24_" class="st10" d="M682.4,324.3c0,0,5.6,6,16.2,0.4c0.9-0.5,1.5-0.9,2.1-1.3c0-1.5,0-3,0-4.5 c-2.6-1.7-7.5-2.5-7.5-2.5C690.7,325.6,682.4,324.3,682.4,324.3z"/>
      </g>
      <g id="XMLID_1_">
        <g id="XMLID_15_">
          <path id="XMLID_30_" class="st12" d="M680.2,303.9c5,1.8,11.4,3.4,18.7,3.3l-1.9-14.2l-6,6.1 C687.6,297.1,683.1,299.6,680.2,303.9z"/>
          <path id="XMLID_31_" class="st11" d="M668.9,298c1.1,6.4,0.8,11.2,0.8,11.2c3.6,0.8,8.1,0.6,8.1,0.6c0.4-2.2,1.3-4.2,2.5-5.9 C673.1,301.3,668.9,298,668.9,298C668.9,298,668.9,298,668.9,298z"/>
          <path id="XMLID_32_" class="st11" d="M713.2,307.2c-4.8-6-10.5-10.9-16.2-14.9l0.1,0.7l0.1-0.1c0,0,11.8,13.5-2,33.3 c3.4,12.7,9.5,24.9,9.5,24.9c5.1-2.7,6.4-7.7,6.4-7.7C707.9,326.5,713.2,307.2,713.2,307.2z"/>
          <path id="XMLID_33_" class="st13" d="M670.7,278.9l-7.8,3.2c3.4,5.2,5.2,11.1,6,16c0,0,0,0,0,0c0,0,4.2,3.2,11.4,5.8 c2.8-4.3,7.3-6.8,10.8-4.7l6-6.1l-0.1-0.7C683.7,283,670.7,278.9,670.7,278.9z"/>
        </g>
        <path id="XMLID_27_" class="st13" d="M697.2,292.9l-6.1,6.3c0.2,0.1,0.4,0.2,0.6,0.4c5,3.8,1.5,17,1.5,17c0.4,3.1,1.1,6.5,2,9.8 C709,306.4,697.2,292.9,697.2,292.9z"/>
      </g>
      <g id="XMLID_23_">
        <path id="XMLID_40_" class="st14" d="M723.2,447c9.7-26,15.4-61.6,17.7-78.6c-16.1-2.8-31.8-3.4-31.8-3.4s-13.6,21.3-28,25.1 c-14.4,3.9-30.4-13.9-30.4-13.9c-8.8-1-17.4-1.2-25.5-0.9c5.1,36,16.8,71.7,16.8,71.7C671.4,452.5,723.2,447,723.2,447z"/>
        <g id="XMLID_36_">
          <path id="XMLID_45_" class="st15" d="M601.6,456.6c-5.5,4.4-13.1,7.4-13.1,7.4c7.5,12.1,13.2,26.8,17.5,42.4 C606.2,478.6,601.6,456.6,601.6,456.6z"/>
          <g id="XMLID_16_">
            <path id="XMLID_41_" class="st14" d="M582.7,380.6c0,0-16.9,18.3-52,23.9c3.5,20.7,9.9,46.7,21.5,68.3 c20.3-3.7,36.2-8.6,36.2-8.6s7.6-3,13.1-7.4c0,0,4.7,22,4.5,49.8c0,0.2,0.1,0.3,0.2,0.5c13.1-46.5,2.2-100.3-6-129.5 C589.5,378.9,582.7,380.6,582.7,380.6z"/>
            <path id="XMLID_44_" class="st9" d="M510.3,406c-48.9,0-83-64.8-83-64.8l-21.1,21.1c0,0,55.6,107.9,92.1,113.2 c16.6,2.4,36.9,0.2,53.9-2.9c-11.6-21.6-18-47.6-21.5-68.3C524.5,405.4,517.7,406,510.3,406z"/>
            <path id="XMLID_46_" class="st14" d="M766.4,376.3c-0.7-0.4-1.3-0.7-2-1.1c-6.4,22-15.9,62.7-11.8,100.6 c1.9-7.2,3.5-11.8,3.5-11.8c4.2,3.4,9.8,5.3,9.8,5.3s22,9.7,48.3,11c5.2-25.6,6.3-48.4,6.4-61.5 C791.1,407.5,766.4,376.3,766.4,376.3z"/>
            <path id="XMLID_50_" class="st9" d="M884.1,365.1c0,0-1.6,55.1-40.3,57.7c-7.8,0.5-15.6-1.1-23.2-4 c-0.1,13.1-1.2,35.9-6.4,61.5c14.3,0.7,29.8-1,43.8-8.1c39.8-20.1,55.5-90.2,55.5-90.2L884.1,365.1z"/>
          </g>
          <path id="XMLID_47_" class="st15" d="M752.6,475.8c0.9,8.3,2.4,16.5,4.8,24.3c4.6-19.8,8.6-30.8,8.6-30.8s-5.7-1.8-9.8-5.3 C756.1,464,754.5,468.6,752.6,475.8z"/>
          <path id="XMLID_48_" class="st8" d="M752.6,475.8c-4.1-37.9,5.4-78.6,11.8-100.6c-6.4-3.1-15-5.3-23.5-6.8 c-2.3,17-7.9,52.6-17.7,78.6c0,0-51.8,5.5-81.2,0c0,0-11.7-35.7-16.8-71.7c-9.5,0.3-18.1,1.2-25,2.1c8.2,29.2,19.1,83,6,129.5 C621.2,561.3,620,626,620,626h124.1c-0.2-32.9,2.4-61.8,5.8-85.6C743.2,518.9,748.5,491.3,752.6,475.8z"/>
          <path id="XMLID_49_" class="st7" d="M752.6,475.8c-4.1,15.4-9.4,43.1-2.7,64.6c2.3-15.8,5-29.4,7.5-40.3 C755,492.3,753.5,484.1,752.6,475.8z"/>
        </g>
      </g>
      <g id="XMLID_9_">
        <path id="XMLID_11_" class="st15" d="M586.4,281.4c0,0,28.6,12.2,47,10.6c4.6-0.4,8.7-1.2,12.3-2.2 c-33.6-2.1-57.4-13.5-57.4-13.5L586.4,281.4z"/>
        <path id="XMLID_13_" class="st14" d="M623.5,273.9c-19.6-0.8-35.2,2.3-35.2,2.3s23.8,11.5,57.4,13.5c10.9-3,17.1-7.7,17.1-7.7 C640.9,280.8,623.5,273.9,623.5,273.9z"/>
      </g>
      <g id="XMLID_8_">
        <g id="XMLID_12_">
          <path id="XMLID_18_" class="st16" d="M669.2,241.5c-15-2.2-25.7,0.4-25.7,0.4c-11.5,10.2-20,32-20,32s17.4,6.9,39.3,8.2 C670.1,267.1,670.6,252.4,669.2,241.5z"/>
          <path id="XMLID_19_" class="st14" d="M688.3,246.6c-6.7-2.7-13.2-4.3-19.1-5.1c1.4,10.9,0.9,25.6-6.4,40.6 c9,7.5,19.6,13.1,28.7,17.2C702,273.5,693.6,254.8,688.3,246.6z"/>
        </g>
        <g id="XMLID_10_">
          <path id="XMLID_21_" class="st15" d="M715.8,288.4c0.2-12.8-3.1-28.8-18.2-37.4c-3.1-1.7-6.2-3.2-9.3-4.4 c5.3,8.2,13.7,26.8,3.3,52.7c12.1,5.4,21.6,7.9,21.6,7.9s0.6-2.1,1.3-5.6c-5.3-1.4-8.4-3.1-8.4-3.1 C708.4,293.1,712.4,290,715.8,288.4z"/>
          <path id="XMLID_22_" class="st13" d="M706.1,298.6c0,0,3.1,1.7,8.4,3.1c0.6-3.4,1.2-8,1.3-13.2 C712.4,290,708.4,293.1,706.1,298.6z"/>
        </g>
      </g>
      <path id="XMLID_26_" class="st15" d="M678.4,390.6c0,0,10.9,8.6,16.8,19.4c0,0,21.4-18.1,23.5-44.3c0,0-4.2-2.6-9.6-0.6 C709,365.1,699.2,381.8,678.4,390.6z"/>
      <path id="XMLID_28_" class="st15" d="M651.2,372.8c0,0-5.2-0.4-10.5,2.7c0,0,2.9,17.7,21.7,35.5c0,0,7.4-13,16-20.3 C678.4,390.6,659.2,386.8,651.2,372.8z"/>
      <path id="XMLID_37_" class="st7" d="M721.5,460.4c0,0-38.5,6.3-77.6,0c0,0,3.4,35.1,7.8,55.9c0,0,14.4,7.8,32.9,10.6 c0,0,14.9-2.7,33.3-9.1C717.9,517.8,722,485.8,721.5,460.4z"/>
    </g>
    <g id="XMLID_63_">
      <polygon id="XMLID_62_" class="st7" points="368.6,404.7 361.8,405.6 324.8,368.9 352,165.7 360.9,163.6 387.7,224 &#9;&#9;"/>
      <g id="XMLID_65_">
        <path id="XMLID_68_" class="st8" d="M390,262.5c-2.7-6.7-9.1-25.3-9.1-25.3l29.8-8.3l-49.7-65.2l-28.8,204.8l14.3,14.2 l24.2-125.2L390,262.5z"/>
        <path id="XMLID_69_" class="st8" d="M392.9,265.1L398,282l3.7-15.6C397.9,265.8,394.7,265.4,392.9,265.1z"/>
        <path id="XMLID_70_" class="st7" d="M390,262.5l2.3,0.6l0.6,2c1.8,0.3,5,0.7,8.8,1.3l9-37.5l-29.8,8.3 C380.9,237.2,387.3,255.8,390,262.5z"/>
        <path id="XMLID_71_" class="st7" d="M391.1,264.8c-0.1,0-0.6-0.9-1.1-2.4l-19.3-5l-24.2,125.2l22.1,22.1L398,282l-5.1-16.9 C391.9,264.9,391.2,264.8,391.1,264.8z"/>
        <path id="XMLID_72_" class="st8" d="M390,262.5c0.6,1.4,1,2.3,1.1,2.4c0.1,0,0.7,0.1,1.8,0.3l-0.6-2L390,262.5z"/>
      </g>
      <path id="XMLID_39_" class="st10" d="M392.3,288c0,0-15,1.1-12.6,15.7c0,0-7.7,4.9-4.2,14c0,0-8.1,8.9-0.9,16.9 c7.2,8,30.2,9.7,30.2,9.7s5.9-33.4,5.9-34.3c0-0.9-7-20.3-7-20.3s-7.8-5.5-8.5-5.5S392.3,288,392.3,288z"/>
      <path id="XMLID_58_" class="st8" d="M380.2,356l11-80.3l-20.4-18.3c0,0-3.1-12.2,10.2-20.3l36.8,28l-19.1,94.9"/>
      <path id="XMLID_51_" class="st9" d="M427.3,341.2c0,0,2.9-33.8-6-46.1c-8.9-12.2-33.8-25.1-38.7-17.6 c-4.9,7.4,19.1,25.7,19.1,25.7s-28.3,33.7,4.6,59.1C406.2,362.3,425.4,352.8,427.3,341.2z"/>
      <path id="XMLID_59_" class="st7" d="M380.2,356c0,0,11.4-5.8,18.5,4.1C398.6,360.1,387.4,371.2,380.2,356z"/>
    </g>
    <g id="XMLID_75_">
      <g id="XMLID_105_">
        <path id="XMLID_110_" class="st8" d="M682.9,577.7v18.9h-1.7v-18.9l-48.4,38.2L644,618l5,13.2c0,0-4,22.3-31.7,28.2 c-1.8,23.1-4.2,53.6-5.8,76.1c0,0,16.5,71,20.3,103.9H666h15.1h1.7h0.1V634.8c32.7-1,61-8.8,61-8.8L682.9,577.7z"/>
        <g id="XMLID_108_">
          <path id="XMLID_114_" class="st7" d="M617.3,659.4c27.7-5.9,31.7-28.2,31.7-28.2s-11.8-0.5-29.2-2.8 C619.4,633.3,618.4,644.9,617.3,659.4z"/>
          <path id="XMLID_115_" class="st8" d="M632.7,615.9L620,626c0,0-0.1,0.9-0.2,2.4c17.4,2.3,29.2,2.8,29.2,2.8l-5-13.2L632.7,615.9 z"/>
        </g>
      </g>
      <g id="XMLID_107_">
        <path id="XMLID_111_" class="st7" d="M719.1,631.2c-10.2,1.7-22.8,3.2-36.1,3.6v204.6h11.4h37.7c3.8-32.8,20.3-112.1,20.3-112.1 c-1.6-22.8-4-45.7-5.9-68.9C722.7,651.3,719.1,631.2,719.1,631.2z"/>
        <path id="XMLID_112_" class="st8" d="M719.1,631.2c0,0,3.6,20.1,27.6,27.2c-1.5-18.8-2.6-32.4-2.6-32.4S734.1,628.8,719.1,631.2z "/>
      </g>
    </g>
    <g id="XMLID_73_">
      <g id="XMLID_77_">
        <path id="XMLID_78_" class="st17" d="M682,868.9v9.3c0,0,51.7,14.2,94.4,14.2c0,0,0.8-3.2,1.5-7.7 C724.1,884.2,694.8,874.6,682,868.9z"/>
        <g id="XMLID_74_">
          <path id="XMLID_81_" class="st18" d="M777.5,859.9c-4.2-11.5-43.4-10.2-43.4-10.2l0.8-14.8l-18.8-0.5c-16.9,1.9-28,1.6-34.1,1 v33.5c12.8,5.7,42.1,15.3,95.9,15.8C779.1,877.6,780.1,867,777.5,859.9z"/>
        </g>
      </g>
      <g id="XMLID_80_">
        <path id="XMLID_83_" class="st19" d="M708.5,846.3c1.8,3.4,4.1,6.7,7,8.9l2.1-10.2C714.5,845.6,711.5,846,708.5,846.3z"/>
        <path id="XMLID_84_" class="st20" d="M682,835.5c0,0-3.5,4.8,0,11.5c0,0,12.3,0.9,26.5-0.6c-2.2-4.1-3.6-8.5-4.6-11.8 C698.1,835,690.8,835.4,682,835.5z"/>
        <path id="XMLID_85_" class="st20" d="M723.2,843.8l-0.8-11.8c0,0-0.7,0.2-2.3,0.5l-2.5,12.6C719.5,844.7,721.3,844.3,723.2,843.8 z"/>
        <path id="XMLID_86_" class="st21" d="M720.1,832.5c-2.7,0.5-8,1.4-16.2,2c0.9,3.4,2.4,7.7,4.6,11.8c3-0.3,6-0.7,9.1-1.3 L720.1,832.5z"/>
      </g>
      <path id="XMLID_76_" class="st18" d="M734.1,849.7c0,0,3.5-12.3,4.8-19.8c0,0-10.5-3.7-26.5,0c0,0,0.4,14.3,3,25.3 C715.5,855.3,722.8,850.5,734.1,849.7z"/>
      <g id="XMLID_82_">
        <path id="XMLID_88_" class="st20" d="M725.6,832.5c-0.1,2.2,0,5.9,0.6,9.5c6-0.6,10.6,0,10.6,0c1.2-3.6,2.1-8.5,2.1-8.5 C733.9,832.1,729,832.1,725.6,832.5z"/>
        <path id="XMLID_89_" class="st21" d="M725.6,832.5c-2.8,0.3-4.5,0.8-4.5,0.8c-0.3,3.1,0.8,9.3,0.8,9.3c1.5-0.3,2.9-0.5,4.3-0.6 C725.6,838.5,725.5,834.7,725.6,832.5z"/>
      </g>
      <polygon id="XMLID_79_" class="st21" points="717.2,850.1 736.5,847.2 741.6,849 730.2,855.4 746.9,849 752.6,848.9 742.6,855.8 &#10;&#9;&#9;&#9;756.1,849.4 761.4,850 751.2,858.4 746.1,858.2 752.8,853.6 741.7,859 736.2,858.3 743.2,852.4 731.3,858 723.9,856.1 &#10;&#9;&#9;&#9;734.3,849.9 718.8,853.9 &#9;&#9;"/>
    </g>
    <g id="XMLID_90_">
      <g id="XMLID_101_">
        <path id="XMLID_104_" class="st17" d="M682.1,868.9v9.3c0,0-51.7,14.2-94.4,14.2c0,0-0.8-3.2-1.5-7.7 C640,884.2,669.3,874.6,682.1,868.9z"/>
        <g id="XMLID_102_">
          <path id="XMLID_103_" class="st18" d="M586.6,859.9c4.2-11.5,43.4-10.2,43.4-10.2l-0.8-14.8l18.8-0.5c16.9,1.9,28,1.6,34.1,1 v33.5c-12.8,5.7-42.1,15.3-95.9,15.8C585,877.6,584,867,586.6,859.9z"/>
        </g>
      </g>
      <g id="XMLID_96_">
        <path id="XMLID_100_" class="st19" d="M655.6,846.3c-1.8,3.4-4.1,6.7-7,8.9l-2.1-10.2C649.6,845.6,652.6,846,655.6,846.3z"/>
        <path id="XMLID_99_" class="st20" d="M682.1,835.5c0,0,3.5,4.8,0,11.5c0,0-12.3,0.9-26.5-0.6c2.2-4.1,3.6-8.5,4.6-11.8 C666,835,673.2,835.4,682.1,835.5z"/>
        <path id="XMLID_98_" class="st20" d="M640.9,843.8l0.8-11.8c0,0,0.7,0.2,2.3,0.5l2.5,12.6C644.6,844.7,642.7,844.3,640.9,843.8z"/>
        <path id="XMLID_97_" class="st21" d="M644,832.5c2.7,0.5,8,1.4,16.2,2c-0.9,3.4-2.4,7.7-4.6,11.8c-3-0.3-6-0.7-9.1-1.3L644,832.5 z"/>
      </g>
      <path id="XMLID_95_" class="st18" d="M630,849.7c0,0-3.5-12.3-4.8-19.8c0,0,10.5-3.7,26.5,0c0,0-0.4,14.3-3,25.3 C648.6,855.3,641.3,850.5,630,849.7z"/>
      <g id="XMLID_92_">
        <path id="XMLID_94_" class="st20" d="M638.5,832.5c0.1,2.2,0,5.9-0.6,9.5c-6-0.6-10.6,0-10.6,0c-1.2-3.6-2.1-8.5-2.1-8.5 C630.2,832.1,635.1,832.1,638.5,832.5z"/>
        <path id="XMLID_93_" class="st21" d="M638.5,832.5c2.8,0.3,4.5,0.8,4.5,0.8c0.3,3.1-0.8,9.3-0.8,9.3c-1.5-0.3-2.9-0.5-4.3-0.6 C638.5,838.5,638.5,834.7,638.5,832.5z"/>
      </g>
      <polygon id="XMLID_91_" class="st21" points="646.9,850.1 627.6,847.2 622.5,849 633.9,855.4 617.1,849 611.5,848.9 621.4,855.8 &#10;&#9;&#9;&#9;608,849.4 602.7,850 612.8,858.4 617.9,858.2 611.3,853.6 622.4,859 627.9,858.3 620.9,852.4 632.8,858 640.2,856.1 629.8,849.9 &#10;&#9;&#9;&#9;645.3,853.9 &#9;&#9;"/>
    </g>
    <path id="XMLID_106_" class="st8" d="M692.9,630.5c0,0,0,32.8,0,38.7c0,5.9-4.9,8.8-15.1,8.8v-53.4L692.9,630.5z"/>
  </g>
  <g id="XMLID_121_">
    <path id="XMLID_6_" class="st7" d="M1114.8,731c0,0,18.8-11.5,39.6-12.5c20.8-1,44.2,12.5,44.2,12.5l-42.7,33.5L1114.8,731z"/>
    <path id="XMLID_5_" class="st8" d="M1120,787.3l-5.3-56.3c0,0,16.4,8.8,44.9,8.3s38.8-8.3,38.8-8.3l-8,70.7c0,0-22.7,7.3-41.7,5 C1133.3,804.8,1120,787.3,1120,787.3z"/>
    <path id="XMLID_7_" class="st7" d="M1138.9,746.3c0,0,21.3,3.5,37.3,0.6c0,0-4.3,12.2-18.7,12.8S1138.9,746.3,1138.9,746.3z"/>
  </g>
  <g id="XMLID_177_">
    <polygon id="XMLID_175_" class="st21" points="1164,863.8 1165.4,848.1 1125.4,836.7 1124.8,849.4 &#9;"/>
    <g id="XMLID_179_">
      <path id="XMLID_181_" class="st18" d="M1208.8,824.4l-41.5-4.2c-2.4,6.4-23,11.4-23,11.4l14,9.3l26.5-2 C1184.7,838.9,1205.6,834.5,1208.8,824.4z"/>
      <path id="XMLID_182_" class="st19" d="M1207.7,838.3c2.5-6.8,1-13.8,1-13.8c-3.2,10.1-24.1,14.5-24.1,14.5l-26.5,2l22.7,15 C1180.9,855.9,1205.2,845,1207.7,838.3z"/>
    </g>
    <path id="XMLID_176_" class="st20" d="M1125.4,836.7l18.9-5l40.5,7.2l-19.3,9.2C1165.4,848.1,1125,836.6,1125.4,836.7z"/>
    <polygon id="XMLID_173_" class="st21" points="1164,863.8 1180.9,855.9 1184.7,838.9 1165.4,848.1 &#9;"/>
    <path id="XMLID_152_" class="st20" d="M1116.2,852.6l24.5-8.9c0,0,9.8-1.3,5.6,9.6l-22,8.5C1124.2,861.8,1126.5,852.4,1116.2,852.6 z"/>
    <path id="XMLID_174_" class="st21" d="M1116.2,852.6c0,0-6.4,12.4,8.1,9.2C1124.2,861.8,1128.1,850.3,1116.2,852.6z"/>
  </g>
  <g id="XMLID_180_">
    <g id="XMLID_3660_">
      <g id="XMLID_7268_">
        <g id="XMLID_7272_">
          <g id="XMLID_7274_">
            <polygon class="st14" points="191.8,176.3 70.8,176.3 93.3,140.7 70.8,105 191.8,105 &#9;&#9;&#9;&#9;&#9;"/>
          </g>
          <g id="XMLID_7273_">
            <polygon class="st15" points="130.2,140.7 191.8,176.3 191.8,140.7 &#9;&#9;&#9;&#9;&#9;"/>
          </g>
        </g>
      </g>
      <g id="XMLID_7261_"/>
    </g>
  </g>
</svg>